<?xml version="1.0" encoding="UTF-8"?><svg id="uuid-a613b613-9da8-48e7-abab-5a7a38bbccce" xmlns="http://www.w3.org/2000/svg" xmlns:xlink="http://www.w3.org/1999/xlink" viewBox="0 0 1002.11 451.71"><defs><linearGradient id="uuid-c9649990-9856-4ea7-a18e-e5024c26b95a" x1="197.79" y1="612.25" x2="198.79" y2="612.25" gradientTransform="translate(-190002.15 -33612.5) rotate(82.1) scale(300.71 -300.71)" gradientUnits="userSpaceOnUse"><stop offset="0" stop-color="#564c5d"/><stop offset=".21" stop-color="#564c5d"/><stop offset="1" stop-color="#483959"/></linearGradient></defs><g id="uuid-21bdb5af-2133-4b0f-942d-4195a9c37cc6"><g id="uuid-4402099e-37c7-4701-a513-1d668634fddd"><path d="M36.25,406.06v-13.37H0v57.83h14.12v-21.9h21.29v-13.35H14.12v-9.2h22.13ZM61.36,392.69v57.83h14.12v-57.83h-14.12ZM116.98,437.24v-44.55h-14.1v57.83h36.5v-13.28h-22.4ZM194,406.06v-13.37h-43.21v13.37h14.64v44.46h14.02v-44.46h14.54ZM228.73,437.24v-9.62h20.11v-13.28h-20.11v-8.28h22.15v-13.37h-36.27v57.83h36.69v-13.28h-22.57ZM296.18,431.92l10.41,18.6h16.06l-12.1-21.81c5.59-3.63,8.8-9.82,8.8-16.41,0-10.89-8.7-19.61-19.52-19.61h-24.51v57.83h14.1v-18.6h6.76ZM289.42,418.57v-12.51h10.41c3.53,0,6.24,2.69,6.24,6.24s-2.86,6.26-6.24,6.26h-10.41ZM388.07,392.79l-.08-.1-15.14,25.28-15.12-25.28h-14.12v57.83h14.12v-32.04l13.43,22.57h3.48l13.43-22.57v32.04h14.04v-57.83h-14.04v.1ZM463.82,392.69l-11.76,21.73-11.83-21.73h-15.89l20.61,38.21v19.61h14.12v-19.44l20.63-38.38h-15.89ZM526.63,392.69h-24.69v57.83h24.69c16.48,0,29.66-12.18,29.66-28.66s-13.18-29.16-29.66-29.16ZM516.06,437.24v-31.18h10.57c8.7,0,15.64,7.01,15.64,15.64s-7.11,15.54-15.64,15.54h-10.57ZM579.54,392.69v57.83h14.12v-57.83h-14.12ZM639.3,451.71c10.74,0,21.13-6.01,21.13-17.6s-8.95-16.14-18.67-19.1c-2.63-.85-4.57-1.61-5.84-2.19-1.77-.85-3.04-1.79-3.04-3.9,0-2.44,3.11-3.38,5.07-3.38,4.55,0,6.84,2.04,8.78,6.01l12.01-7.03c-4.15-8.53-11.33-12.93-20.79-12.93-10.32,0-19.12,6.69-19.12,17.33s7.78,15.22,17.16,18c2.96.85,5.07,1.61,6.51,2.21,1.94.75,3.9,1.77,3.9,4.13,0,3.13-4.23,4.65-6.76,4.65-5.49,0-9.3-2.11-11.41-7.34l-11.83,6.92c3.8,9.72,12.76,14.22,22.9,14.22ZM680.22,421.85c0,16.48,13.52,29.85,29.84,29.85,10.89,0,21.21-6.26,26.28-15.91l-12.43-6.76c-2.54,5.17-8.11,8.55-13.85,8.55-8.63,0-15.81-7.19-15.81-15.73s7.26-15.72,15.81-15.72c5.74,0,10.99,3.04,13.77,8.11l12.33-6.59c-5.15-9.62-15.22-15.54-26.11-15.54-16.41,0-29.84,13.18-29.84,29.74ZM785.54,451.71c16.56,0,29.76-13.45,29.76-29.85s-13.28-29.74-29.76-29.74-29.84,13.35-29.84,29.74,13.35,29.85,29.84,29.85ZM769.73,421.85c0-8.61,7.28-15.72,15.81-15.72s15.64,7.11,15.64,15.72-6.94,15.73-15.64,15.73-15.81-7.19-15.81-15.73ZM839.29,444.6c0,4.48,2.46,7.01,6.94,7.01s6.86-2.61,6.86-7.01-2.38-6.94-6.86-6.94-6.94,2.46-6.94,6.94ZM936.26,423.97v-5.74h-31.95v13.35h14.87c-2.96,3.8-7.43,6.01-12.26,6.01-8.61,0-15.79-7.19-15.79-15.73s7.26-15.72,15.79-15.72c5.24,0,9.39,2.29,12.6,6.42l10.99-8.7c-5.74-7.43-14.12-11.74-23.59-11.74-16.56,0-29.84,13.35-29.84,29.74s13.52,29.85,29.84,29.85c15.39,0,29.34-12.01,29.34-27.74ZM980.98,451.71c10.74,0,21.13-6.01,21.13-17.6s-8.97-16.14-18.69-19.1c-2.61-.85-4.55-1.61-5.82-2.19-1.79-.85-3.05-1.79-3.05-3.9,0-2.44,3.13-3.38,5.07-3.38,4.57,0,6.86,2.04,8.8,6.01l12.01-7.03c-4.15-8.53-11.33-12.93-20.81-12.93-10.3,0-19.1,6.69-19.1,17.33s7.78,15.22,17.16,18c2.96.85,5.07,1.61,6.51,2.21,1.94.75,3.88,1.77,3.88,4.13,0,3.13-4.23,4.65-6.76,4.65-5.49,0-9.3-2.11-11.41-7.34l-11.83,6.92c3.8,9.72,12.78,14.22,22.92,14.22Z"/></g><path d="M503.71,20.03c-74.77,0-135.39,60.62-135.39,135.39s60.62,135.39,135.39,135.39,135.38-60.61,135.38-135.39S578.48,20.03,503.71,20.03" fill="#5e5365"/><path d="M494.17,20.4l-11.13,268.83c6.73,1.03,13.63,1.57,20.66,1.57h0c74.77,0,135.38-60.61,135.38-135.39h0c0-74.77-60.61-135.39-135.38-135.39h0c-3.21,0-6.38.15-9.53.37" fill="url(#uuid-c9649990-9856-4ea7-a18e-e5024c26b95a)"/><path d="M503.71,191.01c-19.66,0-35.59-15.93-35.59-35.59s15.93-35.6,35.59-35.6,35.59,15.94,35.59,35.6-15.93,35.59-35.59,35.59M503.71,85.27c-38.74,0-70.15,31.4-70.15,70.15s31.41,70.14,70.15,70.14,70.15-31.4,70.15-70.14-31.41-70.15-70.15-70.15"/><path d="M589.31,269.98l10.49-4.27,8.92,4.27c-11.26,10.37-24.07,19.08-38.05,25.74l6.85-16.35,11.79-9.38Z" fill="#f05278"/><path d="M589.31,269.98l-18.64,25.74c-9.04,4.35-18.58,7.82-28.51,10.34h-3.88l10.92-23.21,13.96-12.87,12.25-4.27,13.9,4.27Z" fill="#54bd83"/><path d="M532.57,269.98l-3.02,21.76-13.14,18.12.06.47c-4.21.36-8.46.53-12.75.53v-40.88l14.43-6.27,14.43,6.27Z" fill="#f37231"/><path d="M563.16,269.98l-21.27,34.97.28,1.11c-8.32,2.1-16.92,3.57-25.7,4.27l-.06-.47,16.17-39.88,14.82-6.27,15.77,6.27Z" fill="#f05278"/><path d="M613.47,231.78l11.82-3.93,13.81,3.93c-8.07,14.28-18.36,27.18-30.37,38.19h-19.41l6.85-19.92,17.3-18.27Z" fill="#fbdf4a"/><path d="M613.47,231.78l-24.15,38.19h-26.16l1.52-19.09,7.83-18.3,1.09-3.64,22.75-1.09,17.12,3.93Z" fill="#7153a2"/><path d="M577.53,231.78l-.11.86-14.26,37.33h-30.59l-3.02-19.09,10.27-19.1,17.77-7.02,19.95,7.02Z" fill="#e1e1e1"/><path d="M539.82,231.78l-7.24,38.19h-28.87v-38.19l20.18-6.12,15.93,6.12Z" fill="#f05278"/><path d="M622.01,193.6l14.19-6.52,18.2,6.52c-3.41,13.53-8.6,26.34-15.31,38.18h-25.63l-2.56-22.35,11.1-15.83Z" fill="#f37231"/><path d="M622.01,193.6l-8.54,38.18h-35.94l-3.93-19.09,9.26-19.09,18.95-5.43,20.21,5.43Z" fill="#f05278"/><path d="M582.86,193.6l-5.33,38.18h-37.71l-3.53-15.94,7.77-22.24,21.55-5.43,17.25,5.43Z" fill="#fbdf4a"/><path d="M544.06,193.6l-4.24,38.18h-36.11v-38.18l18.05-6.52,22.29,6.52Z" fill="#a1ce53"/><path d="M623.98,155.41l15.5-5.46,19.64,5.46c0,13.17-1.64,25.96-4.72,38.19h-32.39l-4.74-18.35,6.7-19.84Z" fill="#fce3e9"/><path d="M623.98,155.41l-1.97,38.19h-39.16l-5.33-18.35,5.33-19.84,18.4-5.46,22.72,5.46Z" fill="#a1ce53"/><path d="M582.86,155.41v38.19h-38.8l-4.24-20.17,4.24-18.02,17.28-6.73,21.52,6.73Z" fill="#7153a2"/><path d="M544.06,155.41v38.19h-40.35v-38.19l21.66-6.73,18.69,6.73Z" fill="#fbdf4a"/><path d="M659.12,155.41h-35.14l-5.79-12.55,3.83-25.63,13.28-4.4,19.11,4.4c3.08,12.23,4.72,25.02,4.72,38.19" fill="#a1ce53"/><path d="M622.01,117.22l1.97,38.19h-41.12l-6.71-19.09,6.71-19.09,16.91-3.49,22.24,3.49Z" fill="#f37231"/><path d="M582.86,117.22v38.19h-38.8l-4.24-19.09,4.24-19.09,16.37-5.12,22.43,5.12Z" fill="#fce3e9"/><path d="M544.06,117.22v38.19h-40.35v-38.19l23.98-7.67,16.37,7.67Z" fill="#f37231"/><path d="M654.4,117.22h-32.39l-7.81-16.04-.74-22.14h25.63c6.71,11.84,11.89,24.68,15.31,38.19" fill="#7153a2"/><path d="M613.47,79.04l8.54,38.19h-39.16l-5.33-14.77v-23.41h35.94Z" fill="#61ccf0"/><path d="M577.53,79.04l5.33,38.19h-38.8l-7.77-16.41,3.53-21.78,17.22-5.7,20.5,5.7Z" fill="#54bd83"/><path d="M539.82,79.04l4.24,38.19h-40.35v-38.19l16.02-5.7,20.09,5.7Z" fill="#f05278"/><path d="M639.1,79.04h-25.63l-15.66-17.72-8.49-20.47,8.12-3.74,11.29,3.74c12.01,11,22.29,23.9,30.37,38.19" fill="#f37231"/><path d="M589.32,40.85l24.15,38.19h-35.94l-.11-.86-13.96-14.49-.29-22.84,12.62-5.19,13.54,5.19Z" fill="#e1e1e1"/><path d="M608.73,40.85h-19.41l-16.08-14.11-2.56-11.63c13.98,6.69,26.79,15.4,38.05,25.74" fill="#fcee21"/><path d="M570.68,15.11l18.64,25.74h-26.16l-15.77-9.2-13.65-25.3,8.43-1.56c9.93,2.52,19.47,5.99,28.51,10.31" fill="#a1ce53"/><path d="M516.41.97l23.41,45.52-36.11-5.63V0c4.29,0,8.54.17,12.76.52l-.06.45Z" fill="#61ccf0"/><path d="M541.89,5.88l21.27,34.97-13.04,5.63-17.55-5.63L516.41.97l.06-.45c8.78.7,17.39,2.17,25.7,4.27l-.28,1.08Z" fill="#f05278"/><path d="M577.42,78.18l.11.86h-37.71l-7.25-17.17v-21.01h30.59l14.26,37.33Z" fill="#f68933"/><path d="M532.57,40.85l7.24,38.19h-36.11v-38.19h28.86Z" fill="#fbdf4a"/><path d="M619.41,82.29l32.21-3.75-32.2-3.74,10.58-13.36-13.36,10.58-3.74-32.21-3.75,32.21-13.35-10.57,10.57,13.35-32.21,3.74,32.21,3.75-10.58,13.36,13.35-10.58,3.75,32.21,3.74-32.21,13.36,10.58-10.58-13.36Z" fill="#fff"/><path d="M545.23,197.94l15.2,12.03-12.03-15.19,10.11-1.17-10.11-1.18,12.03-15.19-15.2,12.03-1.18-10.12-1.18,10.12-15.2-12.03,12.03,15.2-10.11,1.18,10.11,1.17-12.03,15.19,15.2-12.03,1.18,10.12,1.18-10.12Z" fill="#fff"/><path d="M441.85,83.36c-21.04,14.54-35.39,42.93-35.39,72.05s14.35,57.51,35.39,72.05c-16.03-21.72-25.58-48.02-25.58-72.05s9.55-50.32,25.58-72.05" fill="#908795"/><path d="M423.73,77.87c-22.64,15.65-38.08,46.2-38.08,77.54s15.44,61.89,38.08,77.54c-17.25-23.39-27.54-51.68-27.54-77.54s10.29-54.16,27.54-77.54" fill="#908795"/><path d="M541.89,5.88l-.73-1.33,2.6.66v1.42l-1.88-.75Z" fill="#a1ce53"/></g></svg>