<?xml version="1.0" encoding="UTF-8"?><svg id="uuid-4cfeddd9-78a0-49d1-9f50-8f8a1a337904" xmlns="http://www.w3.org/2000/svg" xmlns:xlink="http://www.w3.org/1999/xlink" viewBox="0 0 1308.42 256.98" width="225"><defs><linearGradient id="uuid-2898caa6-83b3-488a-88d3-00faf0582667" x1="204.24" y1="590.78" x2="205.06" y2="590.78" gradientTransform="translate(-184268.51 -36422.68) rotate(82.1) scale(300.71 -300.71)" gradientUnits="userSpaceOnUse"><stop offset="0" stop-color="#564c5d"/><stop offset=".21" stop-color="#564c5d"/><stop offset="1" stop-color="#483959"/></linearGradient></defs><g id="uuid-86eb5eec-23c6-42b9-aca2-11937a258aac"><path fill="currentColor" d="M342.56,113.21v-13.37h-36.25v57.83h14.12v-21.9h21.29v-13.35h-21.29v-9.2h22.13ZM367.67,99.84v57.83h14.12v-57.83h-14.12ZM423.28,144.39v-44.55h-14.1v57.83h36.5v-13.28h-22.4ZM500.3,113.21v-13.37h-43.21v13.37h14.64v44.46h14.02v-44.46h14.54ZM535.04,144.39v-9.62h20.11v-13.28h-20.11v-8.28h22.15v-13.37h-36.27v57.83h36.69v-13.28h-22.57ZM602.49,139.07l10.41,18.6h16.06l-12.1-21.81c5.59-3.63,8.8-9.82,8.8-16.41,0-10.89-8.7-19.61-19.52-19.61h-24.51v57.83h14.1v-18.6h6.76ZM595.73,125.72v-12.51h10.41c3.53,0,6.24,2.69,6.24,6.24s-2.86,6.26-6.24,6.26h-10.41ZM694.38,99.93l-.08-.1-15.14,25.28-15.12-25.28h-14.12v57.83h14.12v-32.04l13.43,22.57h3.48l13.43-22.57v32.04h14.04v-57.83h-14.04v.1ZM770.13,99.84l-11.76,21.73-11.83-21.73h-15.89l20.61,38.21v19.61h14.12v-19.44l20.63-38.38h-15.89ZM832.93,99.84h-24.69v57.83h24.69c16.48,0,29.66-12.18,29.66-28.66s-13.18-29.16-29.66-29.16ZM822.37,144.39v-31.18h10.57c8.7,0,15.64,7.01,15.64,15.64s-7.11,15.54-15.64,15.54h-10.57ZM885.84,99.84v57.83h14.12v-57.83h-14.12ZM945.61,158.86c10.74,0,21.13-6.01,21.13-17.6s-8.95-16.14-18.67-19.1c-2.63-.85-4.57-1.61-5.84-2.19-1.77-.85-3.04-1.79-3.04-3.9,0-2.44,3.11-3.38,5.07-3.38,4.55,0,6.84,2.04,8.78,6.01l12.01-7.03c-4.15-8.53-11.33-12.93-20.79-12.93-10.32,0-19.12,6.69-19.12,17.33s7.78,15.22,17.16,18c2.96.85,5.07,1.61,6.51,2.21,1.94.75,3.9,1.77,3.9,4.13,0,3.13-4.23,4.65-6.76,4.65-5.49,0-9.3-2.11-11.41-7.34l-11.83,6.92c3.8,9.72,12.76,14.22,22.9,14.22ZM986.53,129c0,16.48,13.52,29.85,29.84,29.85,10.89,0,21.21-6.26,26.28-15.91l-12.43-6.76c-2.54,5.17-8.11,8.55-13.85,8.55-8.63,0-15.81-7.19-15.81-15.73s7.26-15.72,15.81-15.72c5.74,0,10.99,3.04,13.77,8.11l12.33-6.59c-5.15-9.62-15.22-15.54-26.11-15.54-16.41,0-29.84,13.18-29.84,29.74ZM1091.85,158.86c16.56,0,29.76-13.45,29.76-29.85s-13.28-29.74-29.76-29.74-29.84,13.35-29.84,29.74,13.35,29.85,29.84,29.85ZM1076.03,129c0-8.61,7.28-15.72,15.81-15.72s15.64,7.11,15.64,15.72-6.94,15.73-15.64,15.73-15.81-7.19-15.81-15.73ZM1145.6,151.75c0,4.48,2.46,7.01,6.94,7.01s6.86-2.61,6.86-7.01-2.38-6.94-6.86-6.94-6.94,2.46-6.94,6.94ZM1242.56,131.11v-5.74h-31.95v13.35h14.87c-2.96,3.8-7.43,6.01-12.26,6.01-8.61,0-15.79-7.19-15.79-15.73s7.26-15.72,15.79-15.72c5.24,0,9.39,2.29,12.6,6.42l10.99-8.7c-5.74-7.43-14.12-11.74-23.59-11.74-16.56,0-29.84,13.35-29.84,29.74s13.52,29.85,29.84,29.85c15.39,0,29.34-12.01,29.34-27.74ZM1287.28,158.86c10.74,0,21.13-6.01,21.13-17.6s-8.97-16.14-18.69-19.1c-2.61-.85-4.55-1.61-5.82-2.19-1.79-.85-3.05-1.79-3.05-3.9,0-2.44,3.13-3.38,5.07-3.38,4.57,0,6.86,2.04,8.8,6.01l12.01-7.03c-4.15-8.53-11.33-12.93-20.81-12.93-10.3,0-19.1,6.69-19.1,17.33s7.78,15.22,17.16,18c2.96.85,5.07,1.61,6.51,2.21,1.94.75,3.88,1.77,3.88,4.13,0,3.13-4.23,4.65-6.76,4.65-5.49,0-9.3-2.11-11.41-7.34l-11.83,6.92c3.8,9.72,12.78,14.22,22.92,14.22Z"/></g><path d="M111.92,16.56C50.11,16.56,0,66.67,0,128.48s50.11,111.92,111.92,111.92,111.92-50.11,111.92-111.92S173.74,16.56,111.92,16.56" fill="#5e5365"/><path d="M104.04,16.87l-9.2,222.24c5.56.85,11.27,1.3,17.08,1.3h0c61.81,0,111.92-50.11,111.92-111.92h0c0-61.81-50.11-111.92-111.92-111.92h0c-2.65,0-5.28.13-7.88.31" fill="url(#uuid-2898caa6-83b3-488a-88d3-00faf0582667)"/><path d="M111.92,157.91c-16.25,0-29.42-13.17-29.42-29.42s13.17-29.43,29.42-29.43,29.42,13.18,29.42,29.43-13.17,29.42-29.42,29.42M111.92,70.49c-32.03,0-57.99,25.96-57.99,58s25.96,57.98,57.99,57.98,57.99-25.96,57.99-57.98-25.97-58-57.99-58"/><path d="M182.7,223.19l8.67-3.53,7.38,3.53c-9.31,8.58-19.9,15.77-31.46,21.28l5.67-13.52,9.74-7.76Z" fill="#f05278"/><path d="M182.7,223.19l-15.41,21.28c-7.47,3.6-15.36,6.46-23.57,8.55h-3.21l9.03-19.19,11.54-10.64,10.13-3.53,11.49,3.53Z" fill="#54bd83"/><path d="M135.79,223.19l-2.5,17.99-10.87,14.98.05.39c-3.48.3-6.99.44-10.54.44v-33.79l11.93-5.18,11.93,5.18Z" fill="#f37231"/><path d="M161.08,223.19l-17.58,28.91.23.92c-6.88,1.74-13.99,2.95-21.25,3.53l-.05-.39,13.36-32.97,12.25-5.18,13.04,5.18Z" fill="#f05278"/><path d="M202.66,191.62l9.77-3.25,11.42,3.25c-6.67,11.81-15.18,22.47-25.1,31.57h-16.05l5.66-16.47,14.3-15.11Z" fill="#fbdf4a"/><path d="M202.66,191.62l-19.97,31.57h-21.62l1.25-15.78,6.47-15.13.9-3.01,18.81-.9,14.16,3.25Z" fill="#7153a2"/><path d="M172.95,191.62l-.09.71-11.79,30.86h-25.29l-2.5-15.78,8.49-15.79,14.69-5.81,16.49,5.81Z" fill="#e1e1e1"/><path d="M141.78,191.62l-5.99,31.57h-23.87v-31.57l16.68-5.06,13.17,5.06Z" fill="#f05278"/><path d="M209.73,160.05l11.73-5.39,15.04,5.39c-2.82,11.19-7.11,21.78-12.65,31.57h-21.19l-2.12-18.48,9.18-13.09Z" fill="#f37231"/><path d="M209.73,160.05l-7.06,31.57h-29.71l-3.25-15.78,7.66-15.78,15.67-4.49,16.71,4.49Z" fill="#f05278"/><path d="M177.36,160.05l-4.41,31.57h-31.18l-2.92-13.18,6.42-18.38,17.81-4.49,14.26,4.49Z" fill="#fbdf4a"/><path d="M145.28,160.05l-3.51,31.57h-29.85v-31.57l14.92-5.39,18.43,5.39Z" fill="#a1ce53"/><path d="M211.35,128.48l12.82-4.51,16.24,4.51c0,10.89-1.35,21.46-3.9,31.57h-26.78l-3.91-15.17,5.54-16.41Z" fill="#fce3e9"/><path d="M211.35,128.48l-1.63,31.57h-32.37l-4.41-15.17,4.41-16.41,15.21-4.51,18.78,4.51Z" fill="#a1ce53"/><path d="M177.36,128.48v31.57h-32.08l-3.51-16.67,3.51-14.9,14.29-5.56,17.79,5.56Z" fill="#7153a2"/><path d="M145.28,128.48v31.57h-33.36v-31.57l17.9-5.56,15.45,5.56Z" fill="#fbdf4a"/><path d="M240.41,128.48h-29.05l-4.79-10.38,3.16-21.19,10.98-3.64,15.8,3.64c2.55,10.11,3.9,20.68,3.9,31.57" fill="#a1ce53"/><path d="M209.73,96.91l1.63,31.57h-34l-5.55-15.78,5.55-15.78,13.98-2.88,18.39,2.88Z" fill="#f37231"/><path d="M177.36,96.91v31.57h-32.08l-3.51-15.78,3.51-15.78,13.53-4.24,18.54,4.24Z" fill="#fce3e9"/><path d="M145.28,96.91v31.57h-33.36v-31.57l19.82-6.34,13.53,6.34Z" fill="#f37231"/><path d="M236.51,96.91h-26.78l-6.45-13.26-.61-18.3h21.19c5.55,9.79,9.83,20.4,12.65,31.57" fill="#7153a2"/><path d="M202.66,65.34l7.06,31.57h-32.37l-4.41-12.21v-19.36h29.71Z" fill="#61ccf0"/><path d="M172.95,65.34l4.41,31.57h-32.08l-6.42-13.57,2.92-18,14.24-4.72,16.94,4.72Z" fill="#54bd83"/><path d="M141.78,65.34l3.51,31.57h-33.36v-31.57l13.24-4.72,16.61,4.72Z" fill="#f05278"/><path d="M223.85,65.34h-21.19l-12.95-14.65-7.02-16.92,6.71-3.09,9.33,3.09c9.93,9.1,18.43,19.76,25.1,31.57" fill="#f37231"/><path d="M182.7,33.77l19.97,31.57h-29.71l-.09-.71-11.54-11.98-.24-18.88,10.43-4.29,11.19,4.29Z" fill="#e1e1e1"/><path d="M198.75,33.77h-16.05l-13.3-11.67-2.11-9.61c11.56,5.53,22.15,12.73,31.46,21.28" fill="#fcee21"/><path d="M167.29,12.49l15.41,21.28h-21.62l-13.04-7.61-11.28-20.92,6.97-1.29c8.21,2.09,16.09,4.95,23.57,8.53" fill="#a1ce53"/><path d="M122.42.8l19.35,37.63-29.85-4.66V0c3.55,0,7.06.14,10.55.43l-.05.37Z" fill="#61ccf0"/><path d="M143.49,4.86l17.58,28.91-10.78,4.66-14.51-4.66L122.42.8l.05-.37c7.26.58,14.37,1.79,21.25,3.53l-.23.9Z" fill="#f05278"/><path d="M172.86,64.63l.09.71h-31.18l-5.99-14.2v-17.37h25.29l11.79,30.86Z" fill="#f68933"/><path d="M135.79,33.77l5.99,31.57h-29.85v-31.57h23.86Z" fill="#fbdf4a"/><path d="M207.58,68.03l26.63-3.1-26.62-3.09,8.74-11.04-11.05,8.74-3.09-26.63-3.1,26.63-11.04-8.74,8.74,11.04-26.63,3.09,26.63,3.1-8.74,11.05,11.04-8.74,3.1,26.63,3.09-26.63,11.05,8.75-8.75-11.05Z" fill="#fff"/><path d="M146.25,163.63l12.56,9.95-9.95-12.56,8.36-.97-8.36-.98,9.95-12.56-12.56,9.95-.98-8.36-.97,8.36-12.56-9.95,9.95,12.56-8.36.98,8.36.97-9.95,12.56,12.56-9.95.97,8.36.98-8.36Z" fill="#fff"/><path d="M60.79,68.92c-17.39,12.02-29.26,35.49-29.26,59.56s11.87,47.54,29.26,59.56c-13.25-17.96-21.15-39.7-21.15-59.56s7.9-41.6,21.15-59.56" fill="#908795"/><path d="M45.81,64.38c-18.72,12.94-31.48,38.19-31.48,64.1s12.77,51.17,31.48,64.1c-14.26-19.33-22.76-42.73-22.76-64.1s8.5-44.77,22.76-64.1" fill="#908795"/><path d="M143.49,4.86l-.6-1.1,2.15.55v1.17l-1.55-.62Z" fill="#a1ce53"/></svg>