<?xml version="1.0" encoding="UTF-8"?><svg id="uuid-0af404eb-6666-4b46-9f98-c0a3806ac521" xmlns="http://www.w3.org/2000/svg" xmlns:xlink="http://www.w3.org/1999/xlink" viewBox="0 0 290.8 310.85"><defs><linearGradient id="uuid-8f846a83-bb47-419b-8245-cf02d7674aaa" x1="-170.53" y1="612.25" x2="-169.53" y2="612.25" gradientTransform="translate(-175157.01 76095.36) rotate(82.1) scale(300.71 -300.71)" gradientUnits="userSpaceOnUse"><stop offset="0" stop-color="#564c5d"/><stop offset=".21" stop-color="#564c5d"/><stop offset="1" stop-color="#483959"/></linearGradient></defs><g id="uuid-76372b25-02a6-4d66-90d2-72b2d72c91d8"><path d="M135.39,20.03C60.62,20.03,0,80.65,0,155.41s60.62,135.39,135.39,135.39,135.38-60.61,135.38-135.39S210.15,20.03,135.39,20.03" fill="#5e5365"/><path d="M125.85,20.4l-11.13,268.83c6.73,1.03,13.63,1.57,20.66,1.57h0c74.77,0,135.38-60.61,135.38-135.39h0c0-74.77-60.61-135.39-135.38-135.39h0c-3.21,0-6.38.15-9.53.37" fill="url(#uuid-8f846a83-bb47-419b-8245-cf02d7674aaa)"/><path d="M135.39,191.01c-19.66,0-35.59-15.93-35.59-35.59s15.93-35.6,35.59-35.6,35.59,15.94,35.59,35.6-15.93,35.59-35.59,35.59M135.39,85.27c-38.74,0-70.15,31.4-70.15,70.15s31.41,70.14,70.15,70.14,70.15-31.4,70.15-70.14-31.41-70.15-70.15-70.15"/><path d="M220.99,269.98l10.49-4.27,8.92,4.27c-11.26,10.37-24.07,19.08-38.05,25.74l6.85-16.35,11.79-9.38Z" fill="#f05278"/><path d="M220.99,269.98l-18.64,25.74c-9.04,4.35-18.58,7.82-28.51,10.34h-3.88l10.92-23.21,13.96-12.87,12.25-4.27,13.9,4.27Z" fill="#54bd83"/><path d="M164.25,269.98l-3.02,21.76-13.14,18.12.06.47c-4.21.36-8.46.53-12.75.53v-40.88l14.43-6.27,14.43,6.27Z" fill="#f37231"/><path d="M194.84,269.98l-21.27,34.97.28,1.11c-8.32,2.1-16.92,3.57-25.7,4.27l-.06-.47,16.17-39.88,14.82-6.27,15.77,6.27Z" fill="#f05278"/><path d="M245.15,231.78l11.82-3.93,13.81,3.93c-8.07,14.28-18.36,27.18-30.37,38.19h-19.41l6.85-19.92,17.3-18.27Z" fill="#fbdf4a"/><path d="M245.15,231.78l-24.15,38.19h-26.16l1.52-19.09,7.83-18.3,1.09-3.64,22.75-1.09,17.12,3.93Z" fill="#7153a2"/><path d="M209.21,231.78l-.11.86-14.26,37.33h-30.59l-3.02-19.09,10.27-19.1,17.77-7.02,19.95,7.02Z" fill="#e1e1e1"/><path d="M171.49,231.78l-7.24,38.19h-28.87v-38.19l20.18-6.12,15.93,6.12Z" fill="#f05278"/><path d="M253.69,193.6l14.19-6.52,18.2,6.52c-3.41,13.53-8.6,26.34-15.31,38.18h-25.63l-2.56-22.35,11.1-15.83Z" fill="#f37231"/><path d="M253.69,193.6l-8.54,38.18h-35.94l-3.93-19.09,9.26-19.09,18.95-5.43,20.21,5.43Z" fill="#f05278"/><path d="M214.54,193.6l-5.33,38.18h-37.71l-3.53-15.94,7.77-22.24,21.55-5.43,17.25,5.43Z" fill="#fbdf4a"/><path d="M175.73,193.6l-4.24,38.18h-36.11v-38.18l18.05-6.52,22.29,6.52Z" fill="#a1ce53"/><path d="M255.66,155.41l15.5-5.46,19.64,5.46c0,13.17-1.64,25.96-4.72,38.19h-32.39l-4.74-18.35,6.7-19.84Z" fill="#fce3e9"/><path d="M255.66,155.41l-1.97,38.19h-39.16l-5.33-18.35,5.33-19.84,18.4-5.46,22.72,5.46Z" fill="#a1ce53"/><path d="M214.54,155.41v38.19h-38.8l-4.24-20.17,4.24-18.02,17.28-6.73,21.52,6.73Z" fill="#7153a2"/><path d="M175.73,155.41v38.19h-40.35v-38.19l21.66-6.73,18.69,6.73Z" fill="#fbdf4a"/><path d="M290.8,155.41h-35.14l-5.79-12.55,3.83-25.63,13.28-4.4,19.11,4.4c3.08,12.23,4.72,25.02,4.72,38.19" fill="#a1ce53"/><path d="M253.69,117.22l1.97,38.19h-41.12l-6.71-19.09,6.71-19.09,16.91-3.49,22.24,3.49Z" fill="#f37231"/><path d="M214.54,117.22v38.19h-38.8l-4.24-19.09,4.24-19.09,16.37-5.12,22.43,5.12Z" fill="#fce3e9"/><path d="M175.73,117.22v38.19h-40.35v-38.19l23.98-7.67,16.37,7.67Z" fill="#f37231"/><path d="M286.08,117.22h-32.39l-7.81-16.04-.74-22.14h25.63c6.71,11.84,11.89,24.68,15.31,38.19" fill="#7153a2"/><path d="M245.15,79.04l8.54,38.19h-39.16l-5.33-14.77v-23.41h35.94Z" fill="#61ccf0"/><path d="M209.21,79.04l5.33,38.19h-38.8l-7.77-16.41,3.53-21.78,17.22-5.7,20.5,5.7Z" fill="#54bd83"/><path d="M171.49,79.04l4.24,38.19h-40.35v-38.19l16.02-5.7,20.09,5.7Z" fill="#f05278"/><path d="M270.78,79.04h-25.63l-15.66-17.72-8.49-20.47,8.12-3.74,11.29,3.74c12.01,11,22.29,23.9,30.37,38.19" fill="#f37231"/><path d="M220.99,40.85l24.15,38.19h-35.94l-.11-.86-13.96-14.49-.29-22.84,12.62-5.19,13.54,5.19Z" fill="#e1e1e1"/><path d="M240.41,40.85h-19.41l-16.08-14.11-2.56-11.63c13.98,6.69,26.79,15.4,38.05,25.74" fill="#fcee21"/><path d="M202.36,15.11l18.64,25.74h-26.16l-15.77-9.2-13.65-25.3,8.43-1.56c9.93,2.52,19.47,5.99,28.51,10.31" fill="#a1ce53"/><path d="M148.08.97l23.41,45.52-36.11-5.63V0c4.29,0,8.54.17,12.76.52l-.06.45Z" fill="#61ccf0"/><path d="M173.57,5.88l21.27,34.97-13.04,5.63-17.55-5.63L148.08.97l.06-.45c8.78.7,17.39,2.17,25.7,4.27l-.28,1.08Z" fill="#f05278"/><path d="M209.1,78.18l.11.86h-37.71l-7.25-17.17v-21.01h30.59l14.26,37.33Z" fill="#f68933"/><path d="M164.25,40.85l7.24,38.19h-36.11v-38.19h28.86Z" fill="#fbdf4a"/><path d="M251.09,82.29l32.21-3.75-32.2-3.74,10.58-13.36-13.36,10.58-3.74-32.21-3.75,32.21-13.35-10.57,10.57,13.35-32.21,3.74,32.21,3.75-10.58,13.36,13.35-10.58,3.75,32.21,3.74-32.21,13.36,10.58-10.58-13.36Z" fill="#fff"/><path d="M176.91,197.94l15.2,12.03-12.03-15.19,10.11-1.17-10.11-1.18,12.03-15.19-15.2,12.03-1.18-10.12-1.18,10.12-15.2-12.03,12.03,15.2-10.11,1.18,10.11,1.17-12.03,15.19,15.2-12.03,1.18,10.12,1.18-10.12Z" fill="#fff"/><path d="M73.53,83.36c-21.04,14.54-35.39,42.93-35.39,72.05s14.35,57.51,35.39,72.05c-16.03-21.72-25.58-48.02-25.58-72.05s9.55-50.32,25.58-72.05" fill="#908795"/><path d="M55.41,77.87c-22.64,15.65-38.08,46.2-38.08,77.54s15.44,61.89,38.08,77.54c-17.25-23.39-27.54-51.68-27.54-77.54s10.29-54.16,27.54-77.54" fill="#908795"/><path d="M173.57,5.88l-.73-1.33,2.6.66v1.42l-1.88-.75Z" fill="#a1ce53"/></g></svg>